<svg width="172" height="50" viewBox="0 0 172 50" fill="none" xmlns="http://www.w3.org/2000/svg">
<path d="M32.1538 18.459C23.6426 35.0368 29.2362 38.3991 10.1741 33.484C8.38365 37.2144 4.51524 44.3531 10.9294 45.948L26.0924 49.4676C28.3506 49.9928 30.6586 48.835 31.5941 46.7148L40.6306 26.215C42.9117 20.4871 36.3021 19.0571 32.1538 18.4628V18.459Z" fill="#52A7E0"/>
<path d="M14.9821 0.124516L30.1451 3.64404C33.0896 4.32647 34.6845 7.52011 33.4653 10.2844L24.5285 30.5618C23.6045 32.6552 21.3387 33.813 19.0997 33.3299C-9.69292 28.2385 0.167872 27.5637 9.47658 2.87726C10.4121 0.757112 12.7201 -0.396895 14.9782 0.124516H14.9821Z" fill="#52A7E0"/>
<path d="M58.8878 30.8103C58.8878 32.193 58.5529 33.3705 57.8832 34.3427C57.2134 35.2932 56.252 36.0278 54.999 36.5463C53.7675 37.0648 52.3092 37.3241 50.6241 37.3241C49.7599 37.3241 48.9281 37.2809 48.1288 37.1944C47.351 37.108 46.6381 36.9892 45.9899 36.838C45.3418 36.6651 44.7693 36.4599 44.2724 36.2222V33.4353C45.0501 33.7809 46.0115 34.0942 47.1566 34.3751C48.3232 34.6559 49.5222 34.7963 50.7537 34.7963C51.8987 34.7963 52.8601 34.6451 53.6379 34.3427C54.4157 34.0402 54.999 33.6081 55.3878 33.0464C55.7767 32.4847 55.9712 31.8257 55.9712 31.0696C55.9712 30.3134 55.8091 29.6761 55.4851 29.1576C55.161 28.6391 54.5993 28.1638 53.7999 27.7317C53.0222 27.278 51.9311 26.8027 50.5269 26.3058C49.533 25.9385 48.6581 25.5496 47.9019 25.1392C47.1674 24.7071 46.5516 24.221 46.0547 23.6809C45.5578 23.1408 45.1798 22.525 44.9205 21.8337C44.6829 21.1423 44.564 20.343 44.564 19.4356C44.564 18.2041 44.8773 17.1563 45.5038 16.2921C46.1303 15.4064 46.9945 14.7258 48.0964 14.2505C49.2198 13.7752 50.5052 13.5376 51.9527 13.5376C53.2274 13.5376 54.394 13.6564 55.4527 13.8941C56.5113 14.1317 57.4727 14.445 58.3369 14.8339L57.4295 17.3292C56.6301 16.9835 55.7551 16.6918 54.8045 16.4542C53.8755 16.2165 52.9033 16.0977 51.8879 16.0977C50.9157 16.0977 50.1056 16.2381 49.4574 16.519C48.8093 16.7999 48.3232 17.1995 47.9991 17.718C47.6751 18.2149 47.513 18.7983 47.513 19.468C47.513 20.2458 47.6751 20.8939 47.9991 21.4124C48.3232 21.9309 48.8525 22.3954 49.5871 22.8059C50.3216 23.2164 51.3154 23.6593 52.5685 24.1346C53.9296 24.6315 55.0746 25.1716 56.0036 25.7549C56.9542 26.3166 57.6671 26.9971 58.1424 27.7965C58.6393 28.5959 58.8878 29.6005 58.8878 30.8103ZM66.0117 19.63V37H63.1599V19.63H66.0117ZM64.6182 13.1163C65.0503 13.1163 65.4283 13.2675 65.7524 13.57C66.0981 13.8508 66.2709 14.3045 66.2709 14.9311C66.2709 15.536 66.0981 15.9897 65.7524 16.2921C65.4283 16.5946 65.0503 16.7458 64.6182 16.7458C64.1429 16.7458 63.7432 16.5946 63.4191 16.2921C63.0951 15.9897 62.933 15.536 62.933 14.9311C62.933 14.3045 63.0951 13.8508 63.4191 13.57C63.7432 13.2675 64.1429 13.1163 64.6182 13.1163ZM90.5698 19.306C92.5358 19.306 94.0049 19.8137 94.9771 20.8291C95.9493 21.8229 96.4354 23.4432 96.4354 25.6901V37H93.6161V25.8197C93.6161 24.4586 93.3244 23.4324 92.7411 22.7411C92.1794 22.0497 91.2936 21.7041 90.0837 21.7041C88.3986 21.7041 87.1887 22.1902 86.4542 23.1624C85.7412 24.1346 85.3848 25.5496 85.3848 27.4076V37H82.5654V25.8197C82.5654 24.9123 82.4358 24.1562 82.1765 23.5512C81.9172 22.9247 81.5284 22.4602 81.0099 22.1578C80.4914 21.8553 79.8216 21.7041 79.0007 21.7041C77.834 21.7041 76.9158 21.9525 76.2461 22.4494C75.5763 22.9247 75.0902 23.6269 74.7878 24.5558C74.5069 25.4848 74.3665 26.6299 74.3665 27.991V37H71.5147V19.63H73.8156L74.2369 21.9957H74.3989C74.7662 21.3908 75.2091 20.8939 75.7276 20.505C76.2677 20.0945 76.8618 19.7921 77.5099 19.5976C78.1581 19.4032 78.8278 19.306 79.5192 19.306C80.8586 19.306 81.9713 19.5436 82.857 20.0189C83.7644 20.4942 84.4234 21.2288 84.8338 22.2226H84.9959C85.5792 21.2288 86.3678 20.4942 87.3616 20.0189C88.377 19.5436 89.4464 19.306 90.5698 19.306ZM110.065 19.306C112.204 19.306 113.921 20.0513 115.217 21.542C116.535 23.0327 117.194 25.2796 117.194 28.2826C117.194 30.2486 116.892 31.9122 116.287 33.2732C115.703 34.6127 114.872 35.6281 113.791 36.3195C112.733 36.9892 111.48 37.3241 110.032 37.3241C109.147 37.3241 108.358 37.2052 107.667 36.9676C106.975 36.7299 106.381 36.4275 105.884 36.0602C105.409 35.6713 104.998 35.25 104.653 34.7963H104.458C104.502 35.1636 104.545 35.6281 104.588 36.1898C104.631 36.7515 104.653 37.2376 104.653 37.6481V44.7776H101.801V19.63H104.134L104.523 21.9957H104.653C104.998 21.4988 105.409 21.0451 105.884 20.6346C106.381 20.2242 106.964 19.9001 107.634 19.6624C108.326 19.4248 109.136 19.306 110.065 19.306ZM109.546 21.7041C108.38 21.7041 107.44 21.9309 106.727 22.3846C106.014 22.8167 105.495 23.4756 105.171 24.3614C104.847 25.2472 104.674 26.3706 104.653 27.7317V28.2826C104.653 29.7085 104.804 30.9184 105.106 31.9122C105.409 32.906 105.917 33.6621 106.63 34.1806C107.364 34.6991 108.358 34.9584 109.611 34.9584C110.67 34.9584 111.534 34.6667 112.204 34.0834C112.895 33.5001 113.403 32.7115 113.727 31.7177C114.072 30.7023 114.245 29.5465 114.245 28.2502C114.245 26.2626 113.856 24.6747 113.079 23.4864C112.322 22.2982 111.145 21.7041 109.546 21.7041ZM124.59 37H121.739V12.3709H124.59V37ZM132.945 19.63V37H130.094V19.63H132.945ZM131.552 13.1163C131.984 13.1163 132.362 13.2675 132.686 13.57C133.032 13.8508 133.205 14.3045 133.205 14.9311C133.205 15.536 133.032 15.9897 132.686 16.2921C132.362 16.5946 131.984 16.7458 131.552 16.7458C131.077 16.7458 130.677 16.5946 130.353 16.2921C130.029 15.9897 129.867 15.536 129.867 14.9311C129.867 14.3045 130.029 13.8508 130.353 13.57C130.677 13.2675 131.077 13.1163 131.552 13.1163ZM154.554 37H151.249L145.124 26.9539L138.902 37H135.823L143.504 24.9447L136.31 13.8617H139.55L145.221 22.9355L150.925 13.8617H154.004L146.842 24.8799L154.554 37ZM157.826 37V13.8617H160.742V34.4075H170.853V37H157.826Z" fill="#2D363F"/>
</svg>
