<svg width="42" height="50" viewBox="0 0 42 50" fill="none" xmlns="http://www.w3.org/2000/svg">
<path d="M32.1538 18.459C23.6426 35.0368 29.2362 38.3991 10.1741 33.484C8.38365 37.2144 4.51524 44.3531 10.9294 45.948L26.0924 49.4676C28.3506 49.9928 30.6586 48.835 31.5941 46.7148L40.6306 26.215C42.9117 20.4871 36.3021 19.0571 32.1538 18.4628V18.459Z" fill="#52A7E0"/>
<path d="M14.9821 0.124516L30.1451 3.64404C33.0896 4.32647 34.6845 7.52011 33.4653 10.2844L24.5285 30.5618C23.6045 32.6552 21.3387 33.813 19.0997 33.3299C-9.69292 28.2385 0.167872 27.5637 9.47658 2.87726C10.4121 0.757112 12.7201 -0.396895 14.9782 0.124516H14.9821Z" fill="#52A7E0"/>
</svg>
